<svg xmlns="http://www.w3.org/2000/svg" viewBox="0 0 512 512">
  <defs>
    <linearGradient id="bg" x1="0" y1="0" x2="1" y2="1">
      <stop offset="0" stop-color="#5e6ad2"/>
      <stop offset="1" stop-color="#3d4494"/>
    </linearGradient>
  </defs>
  <rect width="512" height="512" rx="116" fill="url(#bg)"/>
  <g fill="#ffffff">
    <!-- 尾羽:两片折面 -->
    <polygon points="150,298 56,282 120,332" opacity="0.92"/>
    <polygon points="120,332 92,398 132,356 150,298" opacity="0.78"/>
    <!-- 身体 -->
    <polygon points="150,298 330,214 362,312 262,378 128,352"/>
    <!-- 头 -->
    <polygon points="330,214 384,196 416,246 344,264"/>
    <!-- 喙(琥珀,品牌点缀色) -->
    <polygon points="416,246 458,252 412,270" fill="#f5a623"/>
    <!-- 举起的翅膀:折面两片 -->
    <polygon points="204,264 300,96 356,252"/>
    <polygon points="204,264 356,252 296,282" opacity="0.8"/>
  </g>
  <circle cx="374" cy="228" r="8" fill="#3d4494"/>
</svg>
